<mxfile host="app.diagrams.net" modified="2023-05-07T18:20:17.660Z" agent="Mozilla/5.0 (Windows NT 10.0; Win64; x64) AppleWebKit/537.36 (KHTML, like Gecko) Chrome/112.0.0.0 Safari/537.36 Edg/112.0.1722.68" etag="E6OGnHz7zmJzFX_ZB9gp" version="21.2.9" type="github">
  <diagram name="第 1 页" id="dfZt5icE5W5cVwjNp3z6">
    <mxGraphModel dx="1203" dy="663" grid="0" gridSize="10" guides="1" tooltips="1" connect="1" arrows="1" fold="1" page="1" pageScale="1" pageWidth="827" pageHeight="1169" math="0" shadow="0">
      <root>
        <mxCell id="0" />
        <mxCell id="1" parent="0" />
        <mxCell id="t_9RPjvaDVZxUkB37-2k-5" value="" style="edgeStyle=orthogonalEdgeStyle;rounded=0;orthogonalLoop=1;jettySize=auto;html=1;sketch=1;curveFitting=1;jiggle=2;" edge="1" parent="1" source="t_9RPjvaDVZxUkB37-2k-1" target="t_9RPjvaDVZxUkB37-2k-4">
          <mxGeometry relative="1" as="geometry" />
        </mxCell>
        <mxCell id="t_9RPjvaDVZxUkB37-2k-1" value="Application Code" style="rounded=1;whiteSpace=wrap;html=1;sketch=1;curveFitting=1;jiggle=2;fillColor=#f5f5f5;fontColor=#333333;strokeColor=#666666;" vertex="1" parent="1">
          <mxGeometry x="130" y="110" width="120" height="60" as="geometry" />
        </mxCell>
        <mxCell id="t_9RPjvaDVZxUkB37-2k-9" value="" style="edgeStyle=orthogonalEdgeStyle;rounded=0;orthogonalLoop=1;jettySize=auto;html=1;sketch=1;curveFitting=1;jiggle=2;" edge="1" parent="1" source="t_9RPjvaDVZxUkB37-2k-4" target="t_9RPjvaDVZxUkB37-2k-8">
          <mxGeometry relative="1" as="geometry" />
        </mxCell>
        <mxCell id="t_9RPjvaDVZxUkB37-2k-4" value="Subject" style="ellipse;whiteSpace=wrap;html=1;rounded=1;sketch=1;curveFitting=1;jiggle=2;fillColor=#d5e8d4;strokeColor=#82b366;" vertex="1" parent="1">
          <mxGeometry x="330" y="110" width="110" height="60" as="geometry" />
        </mxCell>
        <mxCell id="t_9RPjvaDVZxUkB37-2k-11" value="" style="edgeStyle=orthogonalEdgeStyle;rounded=0;orthogonalLoop=1;jettySize=auto;html=1;sketch=1;curveFitting=1;jiggle=2;" edge="1" parent="1" source="t_9RPjvaDVZxUkB37-2k-8" target="t_9RPjvaDVZxUkB37-2k-10">
          <mxGeometry relative="1" as="geometry" />
        </mxCell>
        <mxCell id="t_9RPjvaDVZxUkB37-2k-8" value="Shiro SecurityManager" style="whiteSpace=wrap;html=1;rounded=1;sketch=1;curveFitting=1;jiggle=2;fillColor=#ffe6cc;strokeColor=#d79b00;" vertex="1" parent="1">
          <mxGeometry x="325" y="250" width="120" height="60" as="geometry" />
        </mxCell>
        <mxCell id="t_9RPjvaDVZxUkB37-2k-10" value="Realm" style="whiteSpace=wrap;html=1;rounded=1;sketch=1;curveFitting=1;jiggle=2;fillColor=#e1d5e7;strokeColor=#9673a6;" vertex="1" parent="1">
          <mxGeometry x="325" y="390" width="120" height="60" as="geometry" />
        </mxCell>
        <mxCell id="t_9RPjvaDVZxUkB37-2k-12" value="当前用户(the current &quot;user&quot;)" style="text;html=1;strokeColor=none;fillColor=none;align=center;verticalAlign=middle;whiteSpace=wrap;rounded=0;" vertex="1" parent="1">
          <mxGeometry x="445" y="122.5" width="170" height="35" as="geometry" />
        </mxCell>
        <mxCell id="t_9RPjvaDVZxUkB37-2k-13" value="管理所有的Subject(manages all Subjects)" style="text;html=1;strokeColor=none;fillColor=none;align=center;verticalAlign=middle;whiteSpace=wrap;rounded=0;" vertex="1" parent="1">
          <mxGeometry x="450" y="261.25" width="230" height="37.5" as="geometry" />
        </mxCell>
        <mxCell id="t_9RPjvaDVZxUkB37-2k-14" value="自己实现的权限信息校验(access your security data)" style="text;html=1;strokeColor=none;fillColor=none;align=center;verticalAlign=middle;whiteSpace=wrap;rounded=0;" vertex="1" parent="1">
          <mxGeometry x="445" y="402.5" width="285" height="37.5" as="geometry" />
        </mxCell>
      </root>
    </mxGraphModel>
  </diagram>
</mxfile>
